<mxfile host="app.diagrams.net" modified="2024-04-15T19:26:11.050Z" agent="Mozilla/5.0 (Windows NT 10.0; Win64; x64) AppleWebKit/537.36 (KHTML, like Gecko) Chrome/121.0.0.0 Safari/537.36 OPR/107.0.0.0" etag="0hV59bXUO6aHEDn-xNau" version="24.2.5" type="google">
  <diagram name="Página-1" id="vgltN7OzDsrdaqQOj10W">
    <mxGraphModel grid="1" page="1" gridSize="10" guides="1" tooltips="1" connect="1" arrows="1" fold="1" pageScale="1" pageWidth="827" pageHeight="1169" math="0" shadow="0">
      <root>
        <mxCell id="0" />
        <mxCell id="1" parent="0" />
        <mxCell id="wwNb40rnazp5-CbMqnFN-1" value="" style="endArrow=none;html=1;rounded=0;exitX=0;exitY=0;exitDx=0;exitDy=0;entryX=1;entryY=0;entryDx=0;entryDy=0;" edge="1" parent="1" source="wwNb40rnazp5-CbMqnFN-69" target="wwNb40rnazp5-CbMqnFN-2">
          <mxGeometry relative="1" as="geometry">
            <mxPoint x="-1745" y="2930" as="sourcePoint" />
            <mxPoint x="-1895" y="2795" as="targetPoint" />
          </mxGeometry>
        </mxCell>
        <mxCell id="wwNb40rnazp5-CbMqnFN-2" value="especialidad" style="ellipse;whiteSpace=wrap;html=1;align=center;" vertex="1" parent="1">
          <mxGeometry x="-2230" y="2210" width="100" height="60" as="geometry" />
        </mxCell>
        <mxCell id="wwNb40rnazp5-CbMqnFN-3" value="" style="endArrow=none;html=1;rounded=0;exitX=0;exitY=0.5;exitDx=0;exitDy=0;entryX=0.5;entryY=0;entryDx=0;entryDy=0;" edge="1" parent="1" source="wwNb40rnazp5-CbMqnFN-69" target="wwNb40rnazp5-CbMqnFN-4">
          <mxGeometry relative="1" as="geometry">
            <mxPoint x="-1705" y="2820" as="sourcePoint" />
            <mxPoint x="-1865" y="2750" as="targetPoint" />
          </mxGeometry>
        </mxCell>
        <mxCell id="wwNb40rnazp5-CbMqnFN-4" value="curriculums" style="ellipse;whiteSpace=wrap;html=1;align=center;" vertex="1" parent="1">
          <mxGeometry x="-2240" y="2290" width="120" height="60" as="geometry" />
        </mxCell>
        <mxCell id="wwNb40rnazp5-CbMqnFN-5" value="Id_personal" style="ellipse;whiteSpace=wrap;html=1;align=center;fontStyle=4;" vertex="1" parent="1">
          <mxGeometry x="-2070" y="1980" width="80" height="50" as="geometry" />
        </mxCell>
        <mxCell id="wwNb40rnazp5-CbMqnFN-6" value="" style="endArrow=none;html=1;rounded=0;exitX=0.25;exitY=0;exitDx=0;exitDy=0;entryX=0.5;entryY=0;entryDx=0;entryDy=0;" edge="1" parent="1" source="wwNb40rnazp5-CbMqnFN-37" target="wwNb40rnazp5-CbMqnFN-7">
          <mxGeometry relative="1" as="geometry">
            <mxPoint x="-1235" y="2430" as="sourcePoint" />
            <mxPoint x="-1300" y="2490" as="targetPoint" />
          </mxGeometry>
        </mxCell>
        <mxCell id="wwNb40rnazp5-CbMqnFN-7" value="Nombre" style="ellipse;whiteSpace=wrap;html=1;align=center;" vertex="1" parent="1">
          <mxGeometry x="-2000" y="1960" width="70" height="40" as="geometry" />
        </mxCell>
        <mxCell id="wwNb40rnazp5-CbMqnFN-8" value="" style="endArrow=none;html=1;rounded=0;exitX=0.75;exitY=0;exitDx=0;exitDy=0;entryX=0.5;entryY=0;entryDx=0;entryDy=0;" edge="1" parent="1" source="wwNb40rnazp5-CbMqnFN-37" target="wwNb40rnazp5-CbMqnFN-9">
          <mxGeometry relative="1" as="geometry">
            <mxPoint x="-1030" y="2440" as="sourcePoint" />
            <mxPoint x="-1200" y="2560" as="targetPoint" />
          </mxGeometry>
        </mxCell>
        <mxCell id="wwNb40rnazp5-CbMqnFN-9" value="apellidos" style="ellipse;whiteSpace=wrap;html=1;align=center;" vertex="1" parent="1">
          <mxGeometry x="-1930" y="1950" width="110" height="50" as="geometry" />
        </mxCell>
        <mxCell id="wwNb40rnazp5-CbMqnFN-10" value="" style="endArrow=none;html=1;rounded=0;entryX=0.387;entryY=-0.007;entryDx=0;entryDy=0;entryPerimeter=0;exitX=0.5;exitY=1;exitDx=0;exitDy=0;" edge="1" parent="1" source="wwNb40rnazp5-CbMqnFN-73" target="wwNb40rnazp5-CbMqnFN-11">
          <mxGeometry relative="1" as="geometry">
            <mxPoint x="-1060" y="2490" as="sourcePoint" />
            <mxPoint x="-1130" y="2580" as="targetPoint" />
          </mxGeometry>
        </mxCell>
        <mxCell id="wwNb40rnazp5-CbMqnFN-11" value="tipo de trabajo" style="ellipse;whiteSpace=wrap;html=1;align=center;" vertex="1" parent="1">
          <mxGeometry x="-1965" y="2330" width="100" height="40" as="geometry" />
        </mxCell>
        <mxCell id="wwNb40rnazp5-CbMqnFN-12" value="años_de_experiencia" style="ellipse;whiteSpace=wrap;html=1;align=center;" vertex="1" parent="1">
          <mxGeometry x="-1780" y="2310" width="135" height="40" as="geometry" />
        </mxCell>
        <mxCell id="wwNb40rnazp5-CbMqnFN-13" value="" style="endArrow=none;html=1;rounded=0;exitX=0.841;exitY=1.057;exitDx=0;exitDy=0;entryX=0.5;entryY=0;entryDx=0;entryDy=0;exitPerimeter=0;" edge="1" parent="1" source="wwNb40rnazp5-CbMqnFN-71" target="wwNb40rnazp5-CbMqnFN-12">
          <mxGeometry relative="1" as="geometry">
            <mxPoint x="-1345" y="2570" as="sourcePoint" />
            <mxPoint x="-1185" y="2570" as="targetPoint" />
          </mxGeometry>
        </mxCell>
        <mxCell id="wwNb40rnazp5-CbMqnFN-14" value="" style="endArrow=none;html=1;rounded=0;exitX=0.75;exitY=0;exitDx=0;exitDy=0;entryX=0.5;entryY=1;entryDx=0;entryDy=0;" edge="1" parent="1" source="wwNb40rnazp5-CbMqnFN-41" target="wwNb40rnazp5-CbMqnFN-15">
          <mxGeometry relative="1" as="geometry">
            <mxPoint x="-2140" y="1422.4999999999995" as="sourcePoint" />
            <mxPoint x="-2220" y="1342.5" as="targetPoint" />
          </mxGeometry>
        </mxCell>
        <mxCell id="wwNb40rnazp5-CbMqnFN-15" value="dni_paciente" style="ellipse;whiteSpace=wrap;html=1;align=center;fontStyle=4;" vertex="1" parent="1">
          <mxGeometry x="-1955" y="1600" width="90" height="40" as="geometry" />
        </mxCell>
        <mxCell id="wwNb40rnazp5-CbMqnFN-16" value="" style="endArrow=none;html=1;rounded=0;entryX=0;entryY=0;entryDx=0;entryDy=0;exitX=1;exitY=1;exitDx=0;exitDy=0;" edge="1" parent="1" source="wwNb40rnazp5-CbMqnFN-17" target="wwNb40rnazp5-CbMqnFN-41">
          <mxGeometry relative="1" as="geometry">
            <mxPoint x="-2180" y="1442.5" as="sourcePoint" />
            <mxPoint x="-2140" y="1442.4999999999995" as="targetPoint" />
          </mxGeometry>
        </mxCell>
        <mxCell id="wwNb40rnazp5-CbMqnFN-17" value="nombre" style="ellipse;whiteSpace=wrap;html=1;align=center;" vertex="1" parent="1">
          <mxGeometry x="-2090" y="1640" width="70" height="40" as="geometry" />
        </mxCell>
        <mxCell id="wwNb40rnazp5-CbMqnFN-18" value="" style="endArrow=none;html=1;rounded=0;entryX=0.5;entryY=0;entryDx=0;entryDy=0;" edge="1" parent="1" source="wwNb40rnazp5-CbMqnFN-20" target="wwNb40rnazp5-CbMqnFN-41">
          <mxGeometry relative="1" as="geometry">
            <mxPoint x="-2200" y="1522.5" as="sourcePoint" />
            <mxPoint x="-2110.1828571428573" y="1462.4999999999995" as="targetPoint" />
          </mxGeometry>
        </mxCell>
        <mxCell id="wwNb40rnazp5-CbMqnFN-19" value="numero_planta" style="ellipse;whiteSpace=wrap;html=1;align=center;fontStyle=4;" vertex="1" parent="1">
          <mxGeometry x="-1010" y="1540" width="110" height="40" as="geometry" />
        </mxCell>
        <mxCell id="wwNb40rnazp5-CbMqnFN-20" value="apellidos" style="ellipse;whiteSpace=wrap;html=1;align=center;" vertex="1" parent="1">
          <mxGeometry x="-2035" y="1610" width="90" height="40" as="geometry" />
        </mxCell>
        <mxCell id="wwNb40rnazp5-CbMqnFN-21" value="" style="endArrow=none;html=1;rounded=0;exitX=0.75;exitY=0;exitDx=0;exitDy=0;" edge="1" parent="1" source="wwNb40rnazp5-CbMqnFN-41" target="wwNb40rnazp5-CbMqnFN-22">
          <mxGeometry relative="1" as="geometry">
            <mxPoint x="-2060" y="1422.4999999999995" as="sourcePoint" />
            <mxPoint x="-2050" y="1422.5" as="targetPoint" />
          </mxGeometry>
        </mxCell>
        <mxCell id="wwNb40rnazp5-CbMqnFN-22" value="Medicaments_recibidos" style="ellipse;whiteSpace=wrap;html=1;align=center;" vertex="1" parent="1">
          <mxGeometry x="-1880" y="1630" width="130" height="50" as="geometry" />
        </mxCell>
        <mxCell id="wwNb40rnazp5-CbMqnFN-23" value="" style="endArrow=none;html=1;rounded=0;exitX=0;exitY=1;exitDx=0;exitDy=0;entryX=1;entryY=0;entryDx=0;entryDy=0;" edge="1" parent="1" source="wwNb40rnazp5-CbMqnFN-19" target="wwNb40rnazp5-CbMqnFN-67">
          <mxGeometry relative="1" as="geometry">
            <mxPoint x="-957" y="1362.5" as="sourcePoint" />
            <mxPoint x="-927" y="1219.9999999999995" as="targetPoint" />
          </mxGeometry>
        </mxCell>
        <mxCell id="wwNb40rnazp5-CbMqnFN-24" value="" style="endArrow=none;html=1;rounded=0;entryX=0;entryY=0.5;entryDx=0;entryDy=0;exitX=0.63;exitY=0.95;exitDx=0;exitDy=0;exitPerimeter=0;" edge="1" parent="1" source="wwNb40rnazp5-CbMqnFN-25" target="wwNb40rnazp5-CbMqnFN-45">
          <mxGeometry relative="1" as="geometry">
            <mxPoint x="-860" y="1250" as="sourcePoint" />
            <mxPoint x="-860" y="1180" as="targetPoint" />
          </mxGeometry>
        </mxCell>
        <mxCell id="wwNb40rnazp5-CbMqnFN-25" value="numero habitacion" style="ellipse;whiteSpace=wrap;html=1;align=center;fontStyle=4;" vertex="1" parent="1">
          <mxGeometry x="-1795" y="1420" width="100" height="40" as="geometry" />
        </mxCell>
        <mxCell id="wwNb40rnazp5-CbMqnFN-26" value="Data d&#39;ingrés prevista" style="ellipse;whiteSpace=wrap;html=1;align=center;" vertex="1" parent="1">
          <mxGeometry x="-1750" y="1360" width="100" height="40" as="geometry" />
        </mxCell>
        <mxCell id="wwNb40rnazp5-CbMqnFN-27" value="" style="endArrow=none;html=1;rounded=0;exitX=0.5;exitY=1;exitDx=0;exitDy=0;entryX=0;entryY=0;entryDx=0;entryDy=0;" edge="1" parent="1" source="wwNb40rnazp5-CbMqnFN-26" target="wwNb40rnazp5-CbMqnFN-45">
          <mxGeometry relative="1" as="geometry">
            <mxPoint x="-830" y="1230" as="sourcePoint" />
            <mxPoint x="-860" y="1180" as="targetPoint" />
          </mxGeometry>
        </mxCell>
        <mxCell id="wwNb40rnazp5-CbMqnFN-28" value="" style="endArrow=none;html=1;rounded=0;entryX=0;entryY=1;entryDx=0;entryDy=0;" edge="1" parent="1" source="wwNb40rnazp5-CbMqnFN-29" target="wwNb40rnazp5-CbMqnFN-45">
          <mxGeometry relative="1" as="geometry">
            <mxPoint x="-880" y="1470" as="sourcePoint" />
            <mxPoint x="-860" y="1180" as="targetPoint" />
          </mxGeometry>
        </mxCell>
        <mxCell id="wwNb40rnazp5-CbMqnFN-29" value="Data de sortida prevista" style="ellipse;whiteSpace=wrap;html=1;align=center;" vertex="1" parent="1">
          <mxGeometry x="-1795" y="1480" width="100" height="40" as="geometry" />
        </mxCell>
        <mxCell id="wwNb40rnazp5-CbMqnFN-30" value="id_quirofano" style="ellipse;whiteSpace=wrap;html=1;align=center;fontStyle=4;" vertex="1" parent="1">
          <mxGeometry x="-1310" y="1900" width="110" height="40" as="geometry" />
        </mxCell>
        <mxCell id="wwNb40rnazp5-CbMqnFN-31" value="" style="endArrow=none;html=1;rounded=0;entryX=0;entryY=0;entryDx=0;entryDy=0;exitX=1;exitY=1;exitDx=0;exitDy=0;" edge="1" parent="1" source="wwNb40rnazp5-CbMqnFN-76" target="wwNb40rnazp5-CbMqnFN-30">
          <mxGeometry relative="1" as="geometry">
            <mxPoint x="-990" y="2160" as="sourcePoint" />
            <mxPoint x="-945.7999999999997" y="2200.16" as="targetPoint" />
          </mxGeometry>
        </mxCell>
        <mxCell id="wwNb40rnazp5-CbMqnFN-32" value="fecha" style="ellipse;whiteSpace=wrap;html=1;align=center;" vertex="1" parent="1">
          <mxGeometry x="-1830" y="1880" width="100" height="40" as="geometry" />
        </mxCell>
        <mxCell id="wwNb40rnazp5-CbMqnFN-33" value="" style="endArrow=none;html=1;rounded=0;entryX=0.25;entryY=0;entryDx=0;entryDy=0;exitX=1;exitY=1;exitDx=0;exitDy=0;" edge="1" parent="1" source="wwNb40rnazp5-CbMqnFN-34" target="wwNb40rnazp5-CbMqnFN-62">
          <mxGeometry relative="1" as="geometry">
            <mxPoint x="-2537.5735931288073" y="1723.6621356237306" as="sourcePoint" />
            <mxPoint x="-2440" y="1784.52" as="targetPoint" />
          </mxGeometry>
        </mxCell>
        <mxCell id="wwNb40rnazp5-CbMqnFN-34" value="hora" style="ellipse;whiteSpace=wrap;html=1;align=center;" vertex="1" parent="1">
          <mxGeometry x="-1845" y="1793.75" width="100" height="40" as="geometry" />
        </mxCell>
        <mxCell id="wwNb40rnazp5-CbMqnFN-35" style="edgeStyle=orthogonalEdgeStyle;rounded=0;orthogonalLoop=1;jettySize=auto;html=1;exitX=1;exitY=0.5;exitDx=0;exitDy=0;entryX=0;entryY=0.5;entryDx=0;entryDy=0;endArrow=none;endFill=0;" edge="1" parent="1" source="wwNb40rnazp5-CbMqnFN-37" target="wwNb40rnazp5-CbMqnFN-53">
          <mxGeometry relative="1" as="geometry" />
        </mxCell>
        <mxCell id="wwNb40rnazp5-CbMqnFN-36" style="edgeStyle=orthogonalEdgeStyle;rounded=0;orthogonalLoop=1;jettySize=auto;html=1;exitX=0;exitY=0.5;exitDx=0;exitDy=0;entryX=1;entryY=0.5;entryDx=0;entryDy=0;endArrow=none;endFill=0;" edge="1" parent="1" source="wwNb40rnazp5-CbMqnFN-37" target="wwNb40rnazp5-CbMqnFN-58">
          <mxGeometry relative="1" as="geometry" />
        </mxCell>
        <mxCell id="wwNb40rnazp5-CbMqnFN-37" value="PERSONAL" style="whiteSpace=wrap;html=1;align=center;" vertex="1" parent="1">
          <mxGeometry x="-1975" y="2070" width="100" height="40" as="geometry" />
        </mxCell>
        <mxCell id="wwNb40rnazp5-CbMqnFN-38" style="edgeStyle=orthogonalEdgeStyle;rounded=0;orthogonalLoop=1;jettySize=auto;html=1;exitX=0.5;exitY=0;exitDx=0;exitDy=0;entryX=0.5;entryY=1;entryDx=0;entryDy=0;endArrow=none;endFill=0;" edge="1" parent="1" source="wwNb40rnazp5-CbMqnFN-39" target="wwNb40rnazp5-CbMqnFN-81">
          <mxGeometry relative="1" as="geometry" />
        </mxCell>
        <mxCell id="wwNb40rnazp5-CbMqnFN-39" value="EQUIPAMIENTO" style="whiteSpace=wrap;html=1;align=center;" vertex="1" parent="1">
          <mxGeometry x="-1405" y="1560" width="100" height="40" as="geometry" />
        </mxCell>
        <mxCell id="wwNb40rnazp5-CbMqnFN-40" style="edgeStyle=orthogonalEdgeStyle;rounded=0;orthogonalLoop=1;jettySize=auto;html=1;exitX=0;exitY=0.5;exitDx=0;exitDy=0;entryX=1;entryY=0.5;entryDx=0;entryDy=0;endArrow=none;endFill=0;" edge="1" parent="1" source="wwNb40rnazp5-CbMqnFN-41" target="wwNb40rnazp5-CbMqnFN-51">
          <mxGeometry relative="1" as="geometry" />
        </mxCell>
        <mxCell id="wwNb40rnazp5-CbMqnFN-41" value="PACIENTE" style="whiteSpace=wrap;html=1;align=center;" vertex="1" parent="1">
          <mxGeometry x="-2000" y="1710" width="100" height="40" as="geometry" />
        </mxCell>
        <mxCell id="wwNb40rnazp5-CbMqnFN-42" style="edgeStyle=orthogonalEdgeStyle;rounded=0;orthogonalLoop=1;jettySize=auto;html=1;exitX=0.5;exitY=0;exitDx=0;exitDy=0;entryX=0;entryY=0.5;entryDx=0;entryDy=0;endArrow=none;endFill=0;" edge="1" parent="1" source="wwNb40rnazp5-CbMqnFN-45" target="wwNb40rnazp5-CbMqnFN-65">
          <mxGeometry relative="1" as="geometry" />
        </mxCell>
        <mxCell id="wwNb40rnazp5-CbMqnFN-43" style="edgeStyle=orthogonalEdgeStyle;rounded=0;orthogonalLoop=1;jettySize=auto;html=1;exitX=0.5;exitY=1;exitDx=0;exitDy=0;entryX=0.5;entryY=0;entryDx=0;entryDy=0;endArrow=none;endFill=0;" edge="1" parent="1" source="wwNb40rnazp5-CbMqnFN-45" target="wwNb40rnazp5-CbMqnFN-60">
          <mxGeometry relative="1" as="geometry" />
        </mxCell>
        <mxCell id="wwNb40rnazp5-CbMqnFN-44" style="edgeStyle=orthogonalEdgeStyle;rounded=0;orthogonalLoop=1;jettySize=auto;html=1;exitX=1;exitY=0.5;exitDx=0;exitDy=0;entryX=0;entryY=0.5;entryDx=0;entryDy=0;endArrow=none;endFill=0;" edge="1" parent="1" source="wwNb40rnazp5-CbMqnFN-45" target="wwNb40rnazp5-CbMqnFN-81">
          <mxGeometry relative="1" as="geometry" />
        </mxCell>
        <mxCell id="wwNb40rnazp5-CbMqnFN-45" value="HABITACION" style="whiteSpace=wrap;html=1;align=center;" vertex="1" parent="1">
          <mxGeometry x="-1620" y="1470" width="100" height="40" as="geometry" />
        </mxCell>
        <mxCell id="wwNb40rnazp5-CbMqnFN-46" value="DIAGNOSTICO" style="whiteSpace=wrap;html=1;align=center;" vertex="1" parent="1">
          <mxGeometry x="-2440" y="2298" width="100" height="40" as="geometry" />
        </mxCell>
        <mxCell id="wwNb40rnazp5-CbMqnFN-47" style="edgeStyle=orthogonalEdgeStyle;rounded=0;orthogonalLoop=1;jettySize=auto;html=1;exitX=0.5;exitY=1;exitDx=0;exitDy=0;entryX=0.5;entryY=0;entryDx=0;entryDy=0;endArrow=none;endFill=0;" edge="1" parent="1" source="wwNb40rnazp5-CbMqnFN-49" target="wwNb40rnazp5-CbMqnFN-46">
          <mxGeometry relative="1" as="geometry" />
        </mxCell>
        <mxCell id="wwNb40rnazp5-CbMqnFN-48" style="edgeStyle=orthogonalEdgeStyle;rounded=0;orthogonalLoop=1;jettySize=auto;html=1;exitX=0.5;exitY=0;exitDx=0;exitDy=0;entryX=0.5;entryY=1;entryDx=0;entryDy=0;endArrow=none;endFill=0;" edge="1" parent="1" source="wwNb40rnazp5-CbMqnFN-49" target="wwNb40rnazp5-CbMqnFN-63">
          <mxGeometry relative="1" as="geometry" />
        </mxCell>
        <mxCell id="wwNb40rnazp5-CbMqnFN-49" value="obtiene" style="shape=rhombus;perimeter=rhombusPerimeter;whiteSpace=wrap;html=1;align=center;" vertex="1" parent="1">
          <mxGeometry x="-2450" y="2170" width="120" height="60" as="geometry" />
        </mxCell>
        <mxCell id="wwNb40rnazp5-CbMqnFN-50" style="edgeStyle=orthogonalEdgeStyle;rounded=0;orthogonalLoop=1;jettySize=auto;html=1;exitX=0;exitY=0.5;exitDx=0;exitDy=0;entryX=0.5;entryY=0;entryDx=0;entryDy=0;endArrow=none;endFill=0;" edge="1" parent="1" source="wwNb40rnazp5-CbMqnFN-51" target="wwNb40rnazp5-CbMqnFN-63">
          <mxGeometry relative="1" as="geometry" />
        </mxCell>
        <mxCell id="wwNb40rnazp5-CbMqnFN-51" value="tiene" style="shape=rhombus;perimeter=rhombusPerimeter;whiteSpace=wrap;html=1;align=center;" vertex="1" parent="1">
          <mxGeometry x="-2320" y="1700" width="120" height="60" as="geometry" />
        </mxCell>
        <mxCell id="wwNb40rnazp5-CbMqnFN-52" style="edgeStyle=orthogonalEdgeStyle;rounded=0;orthogonalLoop=1;jettySize=auto;html=1;exitX=1;exitY=0.5;exitDx=0;exitDy=0;entryX=0.5;entryY=1;entryDx=0;entryDy=0;endArrow=none;endFill=0;" edge="1" parent="1" source="wwNb40rnazp5-CbMqnFN-53" target="wwNb40rnazp5-CbMqnFN-62">
          <mxGeometry relative="1" as="geometry">
            <mxPoint x="-1655" y="2030" as="targetPoint" />
          </mxGeometry>
        </mxCell>
        <mxCell id="wwNb40rnazp5-CbMqnFN-53" value="realiza" style="shape=rhombus;perimeter=rhombusPerimeter;whiteSpace=wrap;html=1;align=center;" vertex="1" parent="1">
          <mxGeometry x="-1780" y="2060" width="120" height="60" as="geometry" />
        </mxCell>
        <mxCell id="wwNb40rnazp5-CbMqnFN-54" style="edgeStyle=orthogonalEdgeStyle;rounded=0;orthogonalLoop=1;jettySize=auto;html=1;exitX=0;exitY=0.5;exitDx=0;exitDy=0;entryX=1;entryY=0.5;entryDx=0;entryDy=0;endArrow=none;endFill=0;" edge="1" parent="1" source="wwNb40rnazp5-CbMqnFN-56" target="wwNb40rnazp5-CbMqnFN-41">
          <mxGeometry relative="1" as="geometry" />
        </mxCell>
        <mxCell id="wwNb40rnazp5-CbMqnFN-55" style="edgeStyle=orthogonalEdgeStyle;rounded=0;orthogonalLoop=1;jettySize=auto;html=1;exitX=1;exitY=0.5;exitDx=0;exitDy=0;entryX=0.5;entryY=0;entryDx=0;entryDy=0;endArrow=none;endFill=0;" edge="1" parent="1" source="wwNb40rnazp5-CbMqnFN-56" target="wwNb40rnazp5-CbMqnFN-62">
          <mxGeometry relative="1" as="geometry" />
        </mxCell>
        <mxCell id="wwNb40rnazp5-CbMqnFN-56" value="solicita" style="shape=rhombus;perimeter=rhombusPerimeter;whiteSpace=wrap;html=1;align=center;" vertex="1" parent="1">
          <mxGeometry x="-1780" y="1700" width="120" height="60" as="geometry" />
        </mxCell>
        <mxCell id="wwNb40rnazp5-CbMqnFN-57" style="edgeStyle=orthogonalEdgeStyle;rounded=0;orthogonalLoop=1;jettySize=auto;html=1;exitX=0;exitY=0.5;exitDx=0;exitDy=0;entryX=1;entryY=0.5;entryDx=0;entryDy=0;endArrow=none;endFill=0;" edge="1" parent="1" source="wwNb40rnazp5-CbMqnFN-58" target="wwNb40rnazp5-CbMqnFN-63">
          <mxGeometry relative="1" as="geometry" />
        </mxCell>
        <mxCell id="wwNb40rnazp5-CbMqnFN-58" value="crea" style="shape=rhombus;perimeter=rhombusPerimeter;whiteSpace=wrap;html=1;align=center;" vertex="1" parent="1">
          <mxGeometry x="-2210" y="2060" width="120" height="60" as="geometry" />
        </mxCell>
        <mxCell id="wwNb40rnazp5-CbMqnFN-59" style="edgeStyle=orthogonalEdgeStyle;rounded=0;orthogonalLoop=1;jettySize=auto;html=1;exitX=0.5;exitY=1;exitDx=0;exitDy=0;entryX=1;entryY=0.25;entryDx=0;entryDy=0;endArrow=none;endFill=0;" edge="1" parent="1" source="wwNb40rnazp5-CbMqnFN-60" target="wwNb40rnazp5-CbMqnFN-62">
          <mxGeometry relative="1" as="geometry" />
        </mxCell>
        <mxCell id="wwNb40rnazp5-CbMqnFN-60" value="sucede" style="shape=rhombus;perimeter=rhombusPerimeter;whiteSpace=wrap;html=1;align=center;" vertex="1" parent="1">
          <mxGeometry x="-1630" y="1660" width="120" height="60" as="geometry" />
        </mxCell>
        <mxCell id="wwNb40rnazp5-CbMqnFN-61" style="edgeStyle=orthogonalEdgeStyle;rounded=0;orthogonalLoop=1;jettySize=auto;html=1;exitX=1;exitY=0.75;exitDx=0;exitDy=0;entryX=0;entryY=0.5;entryDx=0;entryDy=0;endArrow=none;endFill=0;" edge="1" parent="1" source="wwNb40rnazp5-CbMqnFN-62" target="wwNb40rnazp5-CbMqnFN-78">
          <mxGeometry relative="1" as="geometry" />
        </mxCell>
        <mxCell id="wwNb40rnazp5-CbMqnFN-62" value="&lt;div&gt;RES/VIS&lt;/div&gt;" style="shape=ext;margin=3;double=1;whiteSpace=wrap;html=1;align=center;" vertex="1" parent="1">
          <mxGeometry x="-1690" y="1850" width="100" height="40" as="geometry" />
        </mxCell>
        <mxCell id="wwNb40rnazp5-CbMqnFN-63" value="HISTORIAL MEDICO" style="shape=ext;margin=3;double=1;whiteSpace=wrap;html=1;align=center;" vertex="1" parent="1">
          <mxGeometry x="-2440" y="2070" width="100" height="40" as="geometry" />
        </mxCell>
        <mxCell id="wwNb40rnazp5-CbMqnFN-64" style="edgeStyle=orthogonalEdgeStyle;rounded=0;orthogonalLoop=1;jettySize=auto;html=1;exitX=1;exitY=0.5;exitDx=0;exitDy=0;endArrow=none;endFill=0;" edge="1" parent="1" source="wwNb40rnazp5-CbMqnFN-65" target="wwNb40rnazp5-CbMqnFN-67">
          <mxGeometry relative="1" as="geometry" />
        </mxCell>
        <mxCell id="wwNb40rnazp5-CbMqnFN-65" value="localizado" style="shape=rhombus;perimeter=rhombusPerimeter;whiteSpace=wrap;html=1;align=center;" vertex="1" parent="1">
          <mxGeometry x="-1415" y="1360" width="120" height="60" as="geometry" />
        </mxCell>
        <mxCell id="wwNb40rnazp5-CbMqnFN-66" style="edgeStyle=orthogonalEdgeStyle;rounded=0;orthogonalLoop=1;jettySize=auto;html=1;exitX=0;exitY=0.5;exitDx=0;exitDy=0;entryX=0.5;entryY=0;entryDx=0;entryDy=0;endArrow=none;endFill=0;" edge="1" parent="1" source="wwNb40rnazp5-CbMqnFN-67" target="wwNb40rnazp5-CbMqnFN-82">
          <mxGeometry relative="1" as="geometry" />
        </mxCell>
        <mxCell id="wwNb40rnazp5-CbMqnFN-67" value="PLANTA" style="whiteSpace=wrap;html=1;align=center;" vertex="1" parent="1">
          <mxGeometry x="-1185" y="1660" width="100" height="40" as="geometry" />
        </mxCell>
        <mxCell id="wwNb40rnazp5-CbMqnFN-68" style="edgeStyle=orthogonalEdgeStyle;rounded=0;orthogonalLoop=1;jettySize=auto;html=1;exitX=0.75;exitY=0;exitDx=0;exitDy=0;endArrow=none;endFill=0;" edge="1" parent="1" source="wwNb40rnazp5-CbMqnFN-69">
          <mxGeometry relative="1" as="geometry">
            <mxPoint x="-1925" y="2120" as="targetPoint" />
          </mxGeometry>
        </mxCell>
        <mxCell id="wwNb40rnazp5-CbMqnFN-69" value="MEDICO" style="whiteSpace=wrap;html=1;align=center;" vertex="1" parent="1">
          <mxGeometry x="-2085" y="2240" width="100" height="40" as="geometry" />
        </mxCell>
        <mxCell id="wwNb40rnazp5-CbMqnFN-70" style="edgeStyle=orthogonalEdgeStyle;rounded=0;orthogonalLoop=1;jettySize=auto;html=1;exitX=0.25;exitY=0;exitDx=0;exitDy=0;endArrow=none;endFill=0;" edge="1" parent="1" source="wwNb40rnazp5-CbMqnFN-71">
          <mxGeometry relative="1" as="geometry">
            <mxPoint x="-1925" y="2120" as="targetPoint" />
          </mxGeometry>
        </mxCell>
        <mxCell id="wwNb40rnazp5-CbMqnFN-71" value="ENFERMERA" style="whiteSpace=wrap;html=1;align=center;" vertex="1" parent="1">
          <mxGeometry x="-1865" y="2240" width="120" height="40" as="geometry" />
        </mxCell>
        <mxCell id="wwNb40rnazp5-CbMqnFN-72" style="edgeStyle=orthogonalEdgeStyle;rounded=0;orthogonalLoop=1;jettySize=auto;html=1;exitX=0.5;exitY=0;exitDx=0;exitDy=0;entryX=0.5;entryY=1;entryDx=0;entryDy=0;endArrow=none;endFill=0;" edge="1" parent="1" source="wwNb40rnazp5-CbMqnFN-73" target="wwNb40rnazp5-CbMqnFN-37">
          <mxGeometry relative="1" as="geometry" />
        </mxCell>
        <mxCell id="wwNb40rnazp5-CbMqnFN-73" value="VARIO" style="whiteSpace=wrap;html=1;align=center;" vertex="1" parent="1">
          <mxGeometry x="-1975" y="2240" width="100" height="40" as="geometry" />
        </mxCell>
        <mxCell id="wwNb40rnazp5-CbMqnFN-74" style="edgeStyle=orthogonalEdgeStyle;rounded=0;orthogonalLoop=1;jettySize=auto;html=1;exitX=0.5;exitY=0;exitDx=0;exitDy=0;entryX=0.5;entryY=1;entryDx=0;entryDy=0;endArrow=none;endFill=0;" edge="1" parent="1" source="wwNb40rnazp5-CbMqnFN-76" target="wwNb40rnazp5-CbMqnFN-80">
          <mxGeometry relative="1" as="geometry" />
        </mxCell>
        <mxCell id="wwNb40rnazp5-CbMqnFN-75" style="edgeStyle=orthogonalEdgeStyle;rounded=0;orthogonalLoop=1;jettySize=auto;html=1;exitX=1;exitY=0.5;exitDx=0;exitDy=0;entryX=0.5;entryY=1;entryDx=0;entryDy=0;endArrow=none;endFill=0;" edge="1" parent="1" source="wwNb40rnazp5-CbMqnFN-76" target="wwNb40rnazp5-CbMqnFN-82">
          <mxGeometry relative="1" as="geometry" />
        </mxCell>
        <mxCell id="wwNb40rnazp5-CbMqnFN-76" value="QUIROFANO" style="whiteSpace=wrap;html=1;align=center;" vertex="1" parent="1">
          <mxGeometry x="-1405" y="1820" width="100" height="40" as="geometry" />
        </mxCell>
        <mxCell id="wwNb40rnazp5-CbMqnFN-77" style="edgeStyle=orthogonalEdgeStyle;rounded=0;orthogonalLoop=1;jettySize=auto;html=1;exitX=1;exitY=0.5;exitDx=0;exitDy=0;entryX=0.5;entryY=1;entryDx=0;entryDy=0;endArrow=none;endFill=0;" edge="1" parent="1" source="wwNb40rnazp5-CbMqnFN-78" target="wwNb40rnazp5-CbMqnFN-76">
          <mxGeometry relative="1" as="geometry" />
        </mxCell>
        <mxCell id="wwNb40rnazp5-CbMqnFN-78" value="sucede" style="shape=rhombus;perimeter=rhombusPerimeter;whiteSpace=wrap;html=1;align=center;" vertex="1" parent="1">
          <mxGeometry x="-1510" y="1860" width="70" height="40" as="geometry" />
        </mxCell>
        <mxCell id="wwNb40rnazp5-CbMqnFN-79" style="edgeStyle=orthogonalEdgeStyle;rounded=0;orthogonalLoop=1;jettySize=auto;html=1;exitX=0.5;exitY=0;exitDx=0;exitDy=0;entryX=0.5;entryY=1;entryDx=0;entryDy=0;endArrow=none;endFill=0;" edge="1" parent="1" source="wwNb40rnazp5-CbMqnFN-80" target="wwNb40rnazp5-CbMqnFN-39">
          <mxGeometry relative="1" as="geometry" />
        </mxCell>
        <mxCell id="wwNb40rnazp5-CbMqnFN-80" value="asignado" style="shape=rhombus;perimeter=rhombusPerimeter;whiteSpace=wrap;html=1;align=center;" vertex="1" parent="1">
          <mxGeometry x="-1390" y="1670" width="70" height="40" as="geometry" />
        </mxCell>
        <mxCell id="wwNb40rnazp5-CbMqnFN-81" value="equipa" style="shape=rhombus;perimeter=rhombusPerimeter;whiteSpace=wrap;html=1;align=center;" vertex="1" parent="1">
          <mxGeometry x="-1390" y="1470" width="70" height="40" as="geometry" />
        </mxCell>
        <mxCell id="wwNb40rnazp5-CbMqnFN-82" value="localizado" style="shape=rhombus;perimeter=rhombusPerimeter;whiteSpace=wrap;html=1;align=center;" vertex="1" parent="1">
          <mxGeometry x="-1250" y="1760" width="80" height="33.75" as="geometry" />
        </mxCell>
        <mxCell id="wwNb40rnazp5-CbMqnFN-83" value="" style="endArrow=none;html=1;rounded=0;exitX=0;exitY=0.25;exitDx=0;exitDy=0;entryX=0.5;entryY=1;entryDx=0;entryDy=0;" edge="1" parent="1" source="wwNb40rnazp5-CbMqnFN-37" target="wwNb40rnazp5-CbMqnFN-5">
          <mxGeometry relative="1" as="geometry">
            <mxPoint x="-1845" y="2310" as="sourcePoint" />
            <mxPoint x="-1965" y="2410" as="targetPoint" />
          </mxGeometry>
        </mxCell>
        <mxCell id="wwNb40rnazp5-CbMqnFN-84" value="" style="endArrow=none;html=1;rounded=0;exitX=0;exitY=0.75;exitDx=0;exitDy=0;entryX=1;entryY=0.5;entryDx=0;entryDy=0;" edge="1" parent="1" source="wwNb40rnazp5-CbMqnFN-62" target="wwNb40rnazp5-CbMqnFN-32">
          <mxGeometry relative="1" as="geometry">
            <mxPoint x="-1690" y="2020" as="sourcePoint" />
            <mxPoint x="-1530" y="2020" as="targetPoint" />
          </mxGeometry>
        </mxCell>
        <mxCell id="wwNb40rnazp5-CbMqnFN-85" value="estudios" style="ellipse;whiteSpace=wrap;html=1;align=center;" vertex="1" parent="1">
          <mxGeometry x="-2145" y="2170" width="100" height="40" as="geometry" />
        </mxCell>
        <mxCell id="wwNb40rnazp5-CbMqnFN-86" value="" style="endArrow=none;html=1;rounded=0;exitX=0.25;exitY=0;exitDx=0;exitDy=0;entryX=0.5;entryY=1;entryDx=0;entryDy=0;" edge="1" parent="1" source="wwNb40rnazp5-CbMqnFN-69" target="wwNb40rnazp5-CbMqnFN-85">
          <mxGeometry relative="1" as="geometry">
            <mxPoint x="-1890" y="2130" as="sourcePoint" />
            <mxPoint x="-1730" y="2130" as="targetPoint" />
          </mxGeometry>
        </mxCell>
        <mxCell id="wwNb40rnazp5-CbMqnFN-87" value="dni" style="ellipse;whiteSpace=wrap;html=1;align=center;" vertex="1" parent="1">
          <mxGeometry x="-1845" y="1990" width="100" height="40" as="geometry" />
        </mxCell>
        <mxCell id="wwNb40rnazp5-CbMqnFN-88" value="" style="endArrow=none;html=1;rounded=0;exitX=1;exitY=0;exitDx=0;exitDy=0;entryX=0;entryY=1;entryDx=0;entryDy=0;" edge="1" parent="1" source="wwNb40rnazp5-CbMqnFN-37" target="wwNb40rnazp5-CbMqnFN-87">
          <mxGeometry relative="1" as="geometry">
            <mxPoint x="-1890" y="2130" as="sourcePoint" />
            <mxPoint x="-1730" y="2130" as="targetPoint" />
          </mxGeometry>
        </mxCell>
        <mxCell id="wwNb40rnazp5-CbMqnFN-89" value="nombre_dispositivo" style="ellipse;whiteSpace=wrap;html=1;align=center;" vertex="1" parent="1">
          <mxGeometry x="-1290" y="1510" width="130" height="40" as="geometry" />
        </mxCell>
        <mxCell id="wwNb40rnazp5-CbMqnFN-90" value="" style="endArrow=none;html=1;rounded=0;exitX=0;exitY=0.5;exitDx=0;exitDy=0;entryX=1;entryY=0;entryDx=0;entryDy=0;" edge="1" parent="1" source="wwNb40rnazp5-CbMqnFN-89" target="wwNb40rnazp5-CbMqnFN-39">
          <mxGeometry relative="1" as="geometry">
            <mxPoint x="-1470" y="1640" as="sourcePoint" />
            <mxPoint x="-1310" y="1640" as="targetPoint" />
          </mxGeometry>
        </mxCell>
        <mxCell id="wwNb40rnazp5-CbMqnFN-91" value="id_dispositivo" style="ellipse;whiteSpace=wrap;html=1;align=center;fontStyle=4;" vertex="1" parent="1">
          <mxGeometry x="-1530" y="1550" width="100" height="40" as="geometry" />
        </mxCell>
        <mxCell id="wwNb40rnazp5-CbMqnFN-92" value="" style="endArrow=none;html=1;rounded=0;exitX=1;exitY=1;exitDx=0;exitDy=0;entryX=0;entryY=0.5;entryDx=0;entryDy=0;" edge="1" parent="1" source="wwNb40rnazp5-CbMqnFN-91" target="wwNb40rnazp5-CbMqnFN-39">
          <mxGeometry relative="1" as="geometry">
            <mxPoint x="-1500" y="1730" as="sourcePoint" />
            <mxPoint x="-1340" y="1730" as="targetPoint" />
          </mxGeometry>
        </mxCell>
        <mxCell id="wwNb40rnazp5-CbMqnFN-93" value="nombre_medico" style="ellipse;whiteSpace=wrap;html=1;align=center;" vertex="1" parent="1">
          <mxGeometry x="-1525" y="1780" width="100" height="40" as="geometry" />
        </mxCell>
        <mxCell id="wwNb40rnazp5-CbMqnFN-94" value="" style="endArrow=none;html=1;rounded=0;exitX=0.5;exitY=1;exitDx=0;exitDy=0;entryX=0;entryY=0.5;entryDx=0;entryDy=0;" edge="1" parent="1" source="wwNb40rnazp5-CbMqnFN-93" target="wwNb40rnazp5-CbMqnFN-76">
          <mxGeometry relative="1" as="geometry">
            <mxPoint x="-1500" y="1990" as="sourcePoint" />
            <mxPoint x="-1340" y="1990" as="targetPoint" />
          </mxGeometry>
        </mxCell>
        <mxCell id="wwNb40rnazp5-CbMqnFN-95" value="1" style="text;strokeColor=none;fillColor=none;spacingLeft=4;spacingRight=4;overflow=hidden;rotatable=0;points=[[0,0.5],[1,0.5]];portConstraint=eastwest;fontSize=12;whiteSpace=wrap;html=1;" vertex="1" parent="1">
          <mxGeometry x="-1130" y="1630" width="40" height="30" as="geometry" />
        </mxCell>
        <mxCell id="wwNb40rnazp5-CbMqnFN-96" value="N" style="text;strokeColor=none;fillColor=none;spacingLeft=4;spacingRight=4;overflow=hidden;rotatable=0;points=[[0,0.5],[1,0.5]];portConstraint=eastwest;fontSize=12;whiteSpace=wrap;html=1;" vertex="1" parent="1">
          <mxGeometry x="-1590" y="1440" width="40" height="30" as="geometry" />
        </mxCell>
        <mxCell id="wwNb40rnazp5-CbMqnFN-97" value="N:M" style="text;strokeColor=none;fillColor=none;spacingLeft=4;spacingRight=4;overflow=hidden;rotatable=0;points=[[0,0.5],[1,0.5]];portConstraint=eastwest;fontSize=12;whiteSpace=wrap;html=1;" vertex="1" parent="1">
          <mxGeometry x="-1350" y="1530" width="40" height="30" as="geometry" />
        </mxCell>
        <mxCell id="wwNb40rnazp5-CbMqnFN-98" value="1:N" style="text;strokeColor=none;fillColor=none;spacingLeft=4;spacingRight=4;overflow=hidden;rotatable=0;points=[[0,0.5],[1,0.5]];portConstraint=eastwest;fontSize=12;whiteSpace=wrap;html=1;" vertex="1" parent="1">
          <mxGeometry x="-1520" y="1460" width="40" height="30" as="geometry" />
        </mxCell>
        <mxCell id="wwNb40rnazp5-CbMqnFN-99" value="N:M" style="text;strokeColor=none;fillColor=none;spacingLeft=4;spacingRight=4;overflow=hidden;rotatable=0;points=[[0,0.5],[1,0.5]];portConstraint=eastwest;fontSize=12;whiteSpace=wrap;html=1;" vertex="1" parent="1">
          <mxGeometry x="-1350" y="1600" width="40" height="30" as="geometry" />
        </mxCell>
        <mxCell id="wwNb40rnazp5-CbMqnFN-100" value="1:N" style="text;strokeColor=none;fillColor=none;spacingLeft=4;spacingRight=4;overflow=hidden;rotatable=0;points=[[0,0.5],[1,0.5]];portConstraint=eastwest;fontSize=12;whiteSpace=wrap;html=1;" vertex="1" parent="1">
          <mxGeometry x="-1350" y="1793.75" width="40" height="30" as="geometry" />
        </mxCell>
        <mxCell id="wwNb40rnazp5-CbMqnFN-101" value="" style="endArrow=none;html=1;rounded=0;exitX=0.5;exitY=1;exitDx=0;exitDy=0;entryX=0;entryY=0.5;entryDx=0;entryDy=0;" edge="1" parent="1" source="wwNb40rnazp5-CbMqnFN-69" target="wwNb40rnazp5-CbMqnFN-103">
          <mxGeometry relative="1" as="geometry">
            <mxPoint x="-2010" y="2300" as="sourcePoint" />
            <mxPoint x="-2035" y="2430" as="targetPoint" />
            <Array as="points">
              <mxPoint x="-2035" y="2430" />
            </Array>
          </mxGeometry>
        </mxCell>
        <mxCell id="wwNb40rnazp5-CbMqnFN-102" value="" style="endArrow=none;html=1;rounded=0;entryX=0.5;entryY=1;entryDx=0;entryDy=0;exitX=1;exitY=0.5;exitDx=0;exitDy=0;" edge="1" parent="1" source="wwNb40rnazp5-CbMqnFN-103" target="wwNb40rnazp5-CbMqnFN-71">
          <mxGeometry relative="1" as="geometry">
            <mxPoint x="-1805" y="2420" as="sourcePoint" />
            <mxPoint x="-1850" y="2300" as="targetPoint" />
            <Array as="points">
              <mxPoint x="-1805" y="2430" />
            </Array>
          </mxGeometry>
        </mxCell>
        <mxCell id="wwNb40rnazp5-CbMqnFN-103" value="tiene asignado" style="shape=rhombus;perimeter=rhombusPerimeter;whiteSpace=wrap;html=1;align=center;" vertex="1" parent="1">
          <mxGeometry x="-1985" y="2400" width="120" height="60" as="geometry" />
        </mxCell>
        <mxCell id="wwNb40rnazp5-CbMqnFN-104" value="1:N" style="text;strokeColor=none;fillColor=none;spacingLeft=4;spacingRight=4;overflow=hidden;rotatable=0;points=[[0,0.5],[1,0.5]];portConstraint=eastwest;fontSize=12;whiteSpace=wrap;html=1;" vertex="1" parent="1">
          <mxGeometry x="-1835" y="2280" width="40" height="30" as="geometry" />
        </mxCell>
        <mxCell id="wwNb40rnazp5-CbMqnFN-105" value="1:1" style="text;strokeColor=none;fillColor=none;spacingLeft=4;spacingRight=4;overflow=hidden;rotatable=0;points=[[0,0.5],[1,0.5]];portConstraint=eastwest;fontSize=12;whiteSpace=wrap;html=1;" vertex="1" parent="1">
          <mxGeometry x="-2030" y="2280" width="40" height="30" as="geometry" />
        </mxCell>
        <mxCell id="wwNb40rnazp5-CbMqnFN-106" value="N" style="text;strokeColor=none;fillColor=none;spacingLeft=4;spacingRight=4;overflow=hidden;rotatable=0;points=[[0,0.5],[1,0.5]];portConstraint=eastwest;fontSize=12;whiteSpace=wrap;html=1;" vertex="1" parent="1">
          <mxGeometry x="-1740" y="2230" width="40" height="30" as="geometry" />
        </mxCell>
        <mxCell id="wwNb40rnazp5-CbMqnFN-107" value="tiene asignado" style="shape=rhombus;perimeter=rhombusPerimeter;whiteSpace=wrap;html=1;align=center;" vertex="1" parent="1">
          <mxGeometry x="-1195" y="2230" width="120" height="60" as="geometry" />
        </mxCell>
        <mxCell id="wwNb40rnazp5-CbMqnFN-108" value="" style="endArrow=none;html=1;rounded=0;exitX=1;exitY=0.5;exitDx=0;exitDy=0;entryX=0;entryY=0.5;entryDx=0;entryDy=0;" edge="1" parent="1" source="wwNb40rnazp5-CbMqnFN-71" target="wwNb40rnazp5-CbMqnFN-107">
          <mxGeometry relative="1" as="geometry">
            <mxPoint x="-1650" y="2140" as="sourcePoint" />
            <mxPoint x="-1490" y="2140" as="targetPoint" />
          </mxGeometry>
        </mxCell>
        <mxCell id="wwNb40rnazp5-CbMqnFN-109" value="" style="endArrow=none;html=1;rounded=0;exitX=0.5;exitY=1;exitDx=0;exitDy=0;entryX=0.5;entryY=0;entryDx=0;entryDy=0;" edge="1" parent="1" source="wwNb40rnazp5-CbMqnFN-67" target="wwNb40rnazp5-CbMqnFN-107">
          <mxGeometry relative="1" as="geometry">
            <mxPoint x="-1650" y="2140" as="sourcePoint" />
            <mxPoint x="-1490" y="2140" as="targetPoint" />
          </mxGeometry>
        </mxCell>
        <mxCell id="wwNb40rnazp5-CbMqnFN-110" value="1" style="text;strokeColor=none;fillColor=none;spacingLeft=4;spacingRight=4;overflow=hidden;rotatable=0;points=[[0,0.5],[1,0.5]];portConstraint=eastwest;fontSize=12;whiteSpace=wrap;html=1;" vertex="1" parent="1">
          <mxGeometry x="-1130" y="1700" width="40" height="30" as="geometry" />
        </mxCell>
        <mxCell id="wwNb40rnazp5-CbMqnFN-111" value="1" style="text;strokeColor=none;fillColor=none;spacingLeft=4;spacingRight=4;overflow=hidden;rotatable=0;points=[[0,0.5],[1,0.5]];portConstraint=eastwest;fontSize=12;whiteSpace=wrap;html=1;" vertex="1" parent="1">
          <mxGeometry x="-1640" y="1823.75" width="40" height="30" as="geometry" />
        </mxCell>
        <mxCell id="wwNb40rnazp5-CbMqnFN-112" value="N" style="text;strokeColor=none;fillColor=none;spacingLeft=4;spacingRight=4;overflow=hidden;rotatable=0;points=[[0,0.5],[1,0.5]];portConstraint=eastwest;fontSize=12;whiteSpace=wrap;html=1;" vertex="1" parent="1">
          <mxGeometry x="-1895" y="1700" width="40" height="30" as="geometry" />
        </mxCell>
        <mxCell id="wwNb40rnazp5-CbMqnFN-113" value="1:N" style="text;strokeColor=none;fillColor=none;spacingLeft=4;spacingRight=4;overflow=hidden;rotatable=0;points=[[0,0.5],[1,0.5]];portConstraint=eastwest;fontSize=12;whiteSpace=wrap;html=1;" vertex="1" parent="1">
          <mxGeometry x="-1640" y="1890" width="40" height="30" as="geometry" />
        </mxCell>
        <mxCell id="wwNb40rnazp5-CbMqnFN-114" value="1:1" style="text;strokeColor=none;fillColor=none;spacingLeft=4;spacingRight=4;overflow=hidden;rotatable=0;points=[[0,0.5],[1,0.5]];portConstraint=eastwest;fontSize=12;whiteSpace=wrap;html=1;" vertex="1" parent="1">
          <mxGeometry x="-1870" y="2070" width="40" height="30" as="geometry" />
        </mxCell>
        <mxCell id="wwNb40rnazp5-CbMqnFN-115" value="1" style="text;strokeColor=none;fillColor=none;spacingLeft=4;spacingRight=4;overflow=hidden;rotatable=0;points=[[0,0.5],[1,0.5]];portConstraint=eastwest;fontSize=12;whiteSpace=wrap;html=1;" vertex="1" parent="1">
          <mxGeometry x="-2420" y="2040" width="40" height="30" as="geometry" />
        </mxCell>
        <mxCell id="wwNb40rnazp5-CbMqnFN-116" value="N" style="text;strokeColor=none;fillColor=none;spacingLeft=4;spacingRight=4;overflow=hidden;rotatable=0;points=[[0,0.5],[1,0.5]];portConstraint=eastwest;fontSize=12;whiteSpace=wrap;html=1;" vertex="1" parent="1">
          <mxGeometry x="-2050" y="1700" width="40" height="30" as="geometry" />
        </mxCell>
        <mxCell id="wwNb40rnazp5-CbMqnFN-117" value="" style="endArrow=none;html=1;rounded=0;exitX=0.75;exitY=0;exitDx=0;exitDy=0;entryX=0.5;entryY=1;entryDx=0;entryDy=0;" edge="1" parent="1" source="wwNb40rnazp5-CbMqnFN-63" target="wwNb40rnazp5-CbMqnFN-118">
          <mxGeometry relative="1" as="geometry">
            <mxPoint x="-2330" y="2000" as="sourcePoint" />
            <mxPoint x="-2325" y="2020" as="targetPoint" />
          </mxGeometry>
        </mxCell>
        <mxCell id="wwNb40rnazp5-CbMqnFN-118" value="&lt;span style=&quot;border-bottom: 1px dotted&quot;&gt;dni_paciente&lt;/span&gt;" style="ellipse;whiteSpace=wrap;html=1;align=center;" vertex="1" parent="1">
          <mxGeometry x="-2380" y="1980" width="100" height="40" as="geometry" />
        </mxCell>
        <mxCell id="wwNb40rnazp5-CbMqnFN-119" value="Historial_familiar" style="ellipse;whiteSpace=wrap;html=1;align=center;" vertex="1" parent="1">
          <mxGeometry x="-2560" y="1970" width="100" height="40" as="geometry" />
        </mxCell>
        <mxCell id="wwNb40rnazp5-CbMqnFN-120" value="Historial_de_alergias" style="ellipse;whiteSpace=wrap;html=1;align=center;" vertex="1" parent="1">
          <mxGeometry x="-2632.5" y="2130" width="130" height="40" as="geometry" />
        </mxCell>
        <mxCell id="wwNb40rnazp5-CbMqnFN-121" value="Historial_de_vacunacion" style="ellipse;whiteSpace=wrap;html=1;align=center;" vertex="1" parent="1">
          <mxGeometry x="-2640" y="2040" width="145" height="40" as="geometry" />
        </mxCell>
        <mxCell id="wwNb40rnazp5-CbMqnFN-122" value="" style="endArrow=none;html=1;rounded=0;exitX=1;exitY=1;exitDx=0;exitDy=0;entryX=0;entryY=0;entryDx=0;entryDy=0;" edge="1" parent="1" source="wwNb40rnazp5-CbMqnFN-119" target="wwNb40rnazp5-CbMqnFN-63">
          <mxGeometry relative="1" as="geometry">
            <mxPoint x="-2160" y="2120" as="sourcePoint" />
            <mxPoint x="-2000" y="2120" as="targetPoint" />
          </mxGeometry>
        </mxCell>
        <mxCell id="wwNb40rnazp5-CbMqnFN-123" value="" style="endArrow=none;html=1;rounded=0;exitX=1;exitY=0.5;exitDx=0;exitDy=0;entryX=0;entryY=0.5;entryDx=0;entryDy=0;" edge="1" parent="1" source="wwNb40rnazp5-CbMqnFN-121" target="wwNb40rnazp5-CbMqnFN-63">
          <mxGeometry relative="1" as="geometry">
            <mxPoint x="-2160" y="2120" as="sourcePoint" />
            <mxPoint x="-2000" y="2120" as="targetPoint" />
          </mxGeometry>
        </mxCell>
        <mxCell id="wwNb40rnazp5-CbMqnFN-124" value="" style="endArrow=none;html=1;rounded=0;exitX=1;exitY=0.5;exitDx=0;exitDy=0;entryX=0;entryY=1;entryDx=0;entryDy=0;" edge="1" parent="1" source="wwNb40rnazp5-CbMqnFN-120" target="wwNb40rnazp5-CbMqnFN-63">
          <mxGeometry relative="1" as="geometry">
            <mxPoint x="-2160" y="2120" as="sourcePoint" />
            <mxPoint x="-2000" y="2120" as="targetPoint" />
          </mxGeometry>
        </mxCell>
        <mxCell id="wwNb40rnazp5-CbMqnFN-125" value="1:N" style="text;strokeColor=none;fillColor=none;spacingLeft=4;spacingRight=4;overflow=hidden;rotatable=0;points=[[0,0.5],[1,0.5]];portConstraint=eastwest;fontSize=12;whiteSpace=wrap;html=1;" vertex="1" parent="1">
          <mxGeometry x="-2390" y="2268" width="40" height="30" as="geometry" />
        </mxCell>
        <mxCell id="wwNb40rnazp5-CbMqnFN-126" value="1:1" style="text;strokeColor=none;fillColor=none;spacingLeft=4;spacingRight=4;overflow=hidden;rotatable=0;points=[[0,0.5],[1,0.5]];portConstraint=eastwest;fontSize=12;whiteSpace=wrap;html=1;" vertex="1" parent="1">
          <mxGeometry x="-2390" y="2110" width="40" height="30" as="geometry" />
        </mxCell>
        <mxCell id="wwNb40rnazp5-CbMqnFN-127" value="nombre_paciente" style="ellipse;whiteSpace=wrap;html=1;align=center;" vertex="1" parent="1">
          <mxGeometry x="-1760" y="1540" width="110" height="40" as="geometry" />
        </mxCell>
        <mxCell id="wwNb40rnazp5-CbMqnFN-128" value="" style="endArrow=none;html=1;rounded=0;exitX=1;exitY=0.5;exitDx=0;exitDy=0;entryX=0.25;entryY=1;entryDx=0;entryDy=0;" edge="1" parent="1" source="wwNb40rnazp5-CbMqnFN-127" target="wwNb40rnazp5-CbMqnFN-45">
          <mxGeometry relative="1" as="geometry">
            <mxPoint x="-1550" y="1620" as="sourcePoint" />
            <mxPoint x="-1390" y="1620" as="targetPoint" />
          </mxGeometry>
        </mxCell>
        <mxCell id="wwNb40rnazp5-CbMqnFN-129" value="1:1" style="text;strokeColor=none;fillColor=none;spacingLeft=4;spacingRight=4;overflow=hidden;rotatable=0;points=[[0,0.5],[1,0.5]];portConstraint=eastwest;fontSize=12;whiteSpace=wrap;html=1;" vertex="1" parent="1">
          <mxGeometry x="-1570" y="1510" width="40" height="30" as="geometry" />
        </mxCell>
        <mxCell id="wwNb40rnazp5-CbMqnFN-130" value="1:N" style="text;strokeColor=none;fillColor=none;spacingLeft=4;spacingRight=4;overflow=hidden;rotatable=0;points=[[0,0.5],[1,0.5]];portConstraint=eastwest;fontSize=12;whiteSpace=wrap;html=1;" vertex="1" parent="1">
          <mxGeometry x="-1570" y="1825" width="40" height="30" as="geometry" />
        </mxCell>
        <mxCell id="wwNb40rnazp5-CbMqnFN-131" value="1:1" style="text;strokeColor=none;fillColor=none;spacingLeft=4;spacingRight=4;overflow=hidden;rotatable=0;points=[[0,0.5],[1,0.5]];portConstraint=eastwest;fontSize=12;whiteSpace=wrap;html=1;" vertex="1" parent="1">
          <mxGeometry x="-1350" y="1865" width="40" height="30" as="geometry" />
        </mxCell>
        <mxCell id="wwNb40rnazp5-CbMqnFN-132" value="1:N" style="text;strokeColor=none;fillColor=none;spacingLeft=4;spacingRight=4;overflow=hidden;rotatable=0;points=[[0,0.5],[1,0.5]];portConstraint=eastwest;fontSize=12;whiteSpace=wrap;html=1;" vertex="1" parent="1">
          <mxGeometry x="-1590" y="1880" width="40" height="30" as="geometry" />
        </mxCell>
        <mxCell id="wwNb40rnazp5-CbMqnFN-133" value="Nombre_diagnostico" style="ellipse;whiteSpace=wrap;html=1;align=center;" vertex="1" parent="1">
          <mxGeometry x="-2628" y="2340" width="121" height="40" as="geometry" />
        </mxCell>
        <mxCell id="wwNb40rnazp5-CbMqnFN-134" value="descripción" style="ellipse;whiteSpace=wrap;html=1;align=center;" vertex="1" parent="1">
          <mxGeometry x="-2540" y="2390" width="100" height="40" as="geometry" />
        </mxCell>
        <mxCell id="wwNb40rnazp5-CbMqnFN-135" value="causa" style="ellipse;whiteSpace=wrap;html=1;align=center;" vertex="1" parent="1">
          <mxGeometry x="-2430" y="2400" width="100" height="40" as="geometry" />
        </mxCell>
        <mxCell id="wwNb40rnazp5-CbMqnFN-136" value="tratamiento" style="ellipse;whiteSpace=wrap;html=1;align=center;" vertex="1" parent="1">
          <mxGeometry x="-2330" y="2380" width="100" height="40" as="geometry" />
        </mxCell>
        <mxCell id="wwNb40rnazp5-CbMqnFN-137" value="" style="endArrow=none;html=1;rounded=0;exitX=1;exitY=0.5;exitDx=0;exitDy=0;entryX=0;entryY=0.5;entryDx=0;entryDy=0;" edge="1" parent="1" source="wwNb40rnazp5-CbMqnFN-133" target="wwNb40rnazp5-CbMqnFN-46">
          <mxGeometry relative="1" as="geometry">
            <mxPoint x="-2380" y="2240" as="sourcePoint" />
            <mxPoint x="-2220" y="2240" as="targetPoint" />
          </mxGeometry>
        </mxCell>
        <mxCell id="wwNb40rnazp5-CbMqnFN-138" value="" style="endArrow=none;html=1;rounded=0;exitX=0.5;exitY=0;exitDx=0;exitDy=0;entryX=0;entryY=1;entryDx=0;entryDy=0;" edge="1" parent="1" source="wwNb40rnazp5-CbMqnFN-134" target="wwNb40rnazp5-CbMqnFN-46">
          <mxGeometry relative="1" as="geometry">
            <mxPoint x="-2380" y="2240" as="sourcePoint" />
            <mxPoint x="-2220" y="2240" as="targetPoint" />
          </mxGeometry>
        </mxCell>
        <mxCell id="wwNb40rnazp5-CbMqnFN-139" value="" style="endArrow=none;html=1;rounded=0;exitX=0.5;exitY=0;exitDx=0;exitDy=0;entryX=0.5;entryY=1;entryDx=0;entryDy=0;" edge="1" parent="1" source="wwNb40rnazp5-CbMqnFN-135" target="wwNb40rnazp5-CbMqnFN-46">
          <mxGeometry relative="1" as="geometry">
            <mxPoint x="-2380" y="2240" as="sourcePoint" />
            <mxPoint x="-2220" y="2240" as="targetPoint" />
          </mxGeometry>
        </mxCell>
        <mxCell id="wwNb40rnazp5-CbMqnFN-140" value="" style="endArrow=none;html=1;rounded=0;exitX=0.5;exitY=0;exitDx=0;exitDy=0;entryX=1;entryY=1;entryDx=0;entryDy=0;" edge="1" parent="1" source="wwNb40rnazp5-CbMqnFN-136" target="wwNb40rnazp5-CbMqnFN-46">
          <mxGeometry relative="1" as="geometry">
            <mxPoint x="-2380" y="2240" as="sourcePoint" />
            <mxPoint x="-2220" y="2240" as="targetPoint" />
          </mxGeometry>
        </mxCell>
        <mxCell id="wwNb40rnazp5-CbMqnFN-141" value="1:N" style="text;strokeColor=none;fillColor=none;spacingLeft=4;spacingRight=4;overflow=hidden;rotatable=0;points=[[0,0.5],[1,0.5]];portConstraint=eastwest;fontSize=12;whiteSpace=wrap;html=1;" vertex="1" parent="1">
          <mxGeometry x="-2330" y="2060" width="40" height="30" as="geometry" />
        </mxCell>
        <mxCell id="wwNb40rnazp5-CbMqnFN-142" value="1:1" style="text;strokeColor=none;fillColor=none;spacingLeft=4;spacingRight=4;overflow=hidden;rotatable=0;points=[[0,0.5],[1,0.5]];portConstraint=eastwest;fontSize=12;whiteSpace=wrap;html=1;" vertex="1" parent="1">
          <mxGeometry x="-2025" y="2060" width="40" height="30" as="geometry" />
        </mxCell>
        <mxCell id="wwNb40rnazp5-CbMqnFN-143" value="" style="endArrow=none;html=1;rounded=0;fontSize=12;startSize=8;endSize=8;curved=1;entryX=0;entryY=0.5;entryDx=0;entryDy=0;exitX=1;exitY=0.5;exitDx=0;exitDy=0;" edge="1" parent="1" source="wwNb40rnazp5-CbMqnFN-144" target="wwNb40rnazp5-CbMqnFN-62">
          <mxGeometry relative="1" as="geometry">
            <mxPoint x="-1890" y="1870" as="sourcePoint" />
            <mxPoint x="-1930" y="2280" as="targetPoint" />
          </mxGeometry>
        </mxCell>
        <mxCell id="wwNb40rnazp5-CbMqnFN-144" value="codigo_visita" style="ellipse;whiteSpace=wrap;html=1;align=center;" vertex="1" parent="1">
          <mxGeometry x="-1900" y="1840" width="100" height="40" as="geometry" />
        </mxCell>
        <mxCell id="wwNb40rnazp5-CbMqnFN-145" value="" style="endArrow=none;html=1;rounded=0;fontSize=12;startSize=8;endSize=8;curved=1;exitX=0;exitY=0;exitDx=0;exitDy=0;entryX=1;entryY=0.5;entryDx=0;entryDy=0;" edge="1" parent="1" source="wwNb40rnazp5-CbMqnFN-46" target="wwNb40rnazp5-CbMqnFN-146">
          <mxGeometry relative="1" as="geometry">
            <mxPoint x="-2090" y="2370" as="sourcePoint" />
            <mxPoint x="-2486.6236534984764" y="2440.7289923283133" as="targetPoint" />
          </mxGeometry>
        </mxCell>
        <mxCell id="wwNb40rnazp5-CbMqnFN-146" value="codigo_diagnostico" style="ellipse;whiteSpace=wrap;html=1;align=center;fontStyle=4;" vertex="1" parent="1">
          <mxGeometry x="-2650" y="2280" width="100" height="40" as="geometry" />
        </mxCell>
        <mxCell id="wwNb40rnazp5-CbMqnFN-147" value="" style="endArrow=none;html=1;rounded=0;fontSize=12;startSize=8;endSize=8;curved=1;entryX=0.25;entryY=1;entryDx=0;entryDy=0;exitX=0.5;exitY=0;exitDx=0;exitDy=0;" edge="1" parent="1" source="wwNb40rnazp5-CbMqnFN-148" target="wwNb40rnazp5-CbMqnFN-62">
          <mxGeometry relative="1" as="geometry">
            <mxPoint x="-1690" y="1920" as="sourcePoint" />
            <mxPoint x="-1760" y="2120" as="targetPoint" />
          </mxGeometry>
        </mxCell>
        <mxCell id="wwNb40rnazp5-CbMqnFN-148" value="id_medico" style="ellipse;whiteSpace=wrap;html=1;align=center;fontStyle=4;" vertex="1" parent="1">
          <mxGeometry x="-1750" y="1930" width="100" height="40" as="geometry" />
        </mxCell>
        <mxCell id="wwNb40rnazp5-CbMqnFN-149" style="edgeStyle=orthogonalEdgeStyle;rounded=0;orthogonalLoop=1;jettySize=auto;html=1;exitX=0;exitY=0;exitDx=0;exitDy=0;entryX=0.07;entryY=0.152;entryDx=0;entryDy=0;entryPerimeter=0;" edge="1" parent="1" source="wwNb40rnazp5-CbMqnFN-5" target="wwNb40rnazp5-CbMqnFN-5">
          <mxGeometry relative="1" as="geometry" />
        </mxCell>
        <mxCell id="wwNb40rnazp5-CbMqnFN-150" value="" style="endArrow=none;html=1;rounded=0;exitX=0.5;exitY=1;exitDx=0;exitDy=0;entryX=0.25;entryY=0;entryDx=0;entryDy=0;" edge="1" parent="1" source="wwNb40rnazp5-CbMqnFN-151" target="wwNb40rnazp5-CbMqnFN-63">
          <mxGeometry relative="1" as="geometry">
            <mxPoint x="-2431" y="1920" as="sourcePoint" />
            <mxPoint x="-2040" y="2060" as="targetPoint" />
          </mxGeometry>
        </mxCell>
        <mxCell id="wwNb40rnazp5-CbMqnFN-151" value="id_historial" style="ellipse;whiteSpace=wrap;html=1;align=center;fontStyle=4;" vertex="1" parent="1">
          <mxGeometry x="-2495" y="1920" width="100" height="40" as="geometry" />
        </mxCell>
        <mxCell id="wwNb40rnazp5-CbMqnFN-152" value="0:1" style="text;strokeColor=none;fillColor=none;spacingLeft=4;spacingRight=4;overflow=hidden;rotatable=0;points=[[0,0.5],[1,0.5]];portConstraint=eastwest;fontSize=12;whiteSpace=wrap;html=1;" vertex="1" parent="1">
          <mxGeometry x="-1210" y="1650" width="40" height="30" as="geometry" />
        </mxCell>
        <mxCell id="wwNb40rnazp5-CbMqnFN-153" value="1:1" style="text;strokeColor=none;fillColor=none;spacingLeft=4;spacingRight=4;overflow=hidden;rotatable=0;points=[[0,0.5],[1,0.5]];portConstraint=eastwest;fontSize=12;whiteSpace=wrap;html=1;" vertex="1" parent="1">
          <mxGeometry x="-1305" y="1810" width="40" height="30" as="geometry" />
        </mxCell>
        <mxCell id="wwNb40rnazp5-CbMqnFN-154" value="t,d" style="text;strokeColor=none;fillColor=none;spacingLeft=4;spacingRight=4;overflow=hidden;rotatable=0;points=[[0,0.5],[1,0.5]];portConstraint=eastwest;fontSize=12;whiteSpace=wrap;html=1;" vertex="1" parent="1">
          <mxGeometry x="-1965" y="2125" width="40" height="30" as="geometry" />
        </mxCell>
      </root>
    </mxGraphModel>
  </diagram>
</mxfile>
